<?xml version="1.0" standalone="no"?>
<!DOCTYPE svg PUBLIC "-//W3C//DTD SVG 20010904//EN"
 "http://www.w3.org/TR/2001/REC-SVG-20010904/DTD/svg10.dtd">
<svg version="1.0" xmlns="http://www.w3.org/2000/svg"
 width="334.000000pt" height="334.000000pt" viewBox="0 0 334.000000 334.000000"
 preserveAspectRatio="xMidYMid meet">
<metadata>
Created by potrace 1.14, written by Peter Selinger 2001-2017
</metadata>
<g transform="translate(0.000000,334.000000) scale(0.100000,-0.100000)"
fill="#000000" stroke="none">
<path d="M1591 2913 c-41 -71 -96 -164 -121 -208 -231 -395 -363 -621 -366
-627 -5 -7 -4 -7 216 52 85 23 162 44 170 46 8 2 42 11 75 20 33 9 67 18 75
19 8 2 15 4 15 5 0 1 7 3 15 5 8 1 35 8 60 15 25 7 52 14 60 16 47 11 286 77
288 79 5 4 -404 705 -411 705 -1 0 -36 -57 -76 -127z"/>
<path d="M2140 2144 c-25 -6 -88 -23 -140 -37 -52 -14 -205 -55 -340 -92 -135
-36 -337 -90 -450 -121 -113 -31 -216 -58 -230 -60 -13 -3 -25 -6 -25 -7 -1
-1 -98 -168 -217 -372 -119 -203 -220 -379 -226 -390 -10 -20 -7 -20 1150 -18
638 0 1162 3 1164 6 3 3 -78 148 -181 324 -102 175 -191 327 -197 338 -39 67
-260 440 -261 441 -1 0 -22 -5 -47 -12z"/>
<path d="M344 523 l1 -208 135 0 135 0 0 30 0 30 -80 2 c-44 0 -87 2 -96 2
-14 1 -16 22 -17 159 0 86 -1 165 -1 175 -1 13 -10 17 -40 17 l-39 0 2 -207z"/>
<path d="M659 704 c0 -13 0 -94 0 -179 0 -85 0 -168 0 -185 l1 -29 150 1 150
0 0 32 0 33 -107 0 c-104 0 -108 1 -113 23 -3 13 -4 38 -2 56 l4 33 104 -2
c57 -1 104 0 105 3 1 3 2 17 3 33 l3 27 -76 1 c-42 1 -90 1 -108 1 -28 0 -31
3 -35 36 -9 72 -8 72 113 72 l109 0 0 34 0 35 -150 0 -150 0 -1 -25z"/>
<path d="M1158 679 c-67 -141 -168 -361 -168 -365 0 -2 18 -4 40 -4 l41 0 40
88 c22 48 48 102 56 120 l16 34 39 -84 c74 -159 69 -153 116 -155 46 -3 46 -6
7 76 -13 25 -43 91 -68 146 -26 55 -57 122 -70 149 l-24 49 -25 -54z"/>
<path d="M1419 703 c-1 -35 -1 -352 0 -375 1 -15 13 -17 99 -17 148 0 214 25
262 98 28 42 36 140 17 191 -32 84 -122 127 -274 129 l-103 2 -1 -28z m231
-59 c53 -21 84 -78 77 -140 -5 -52 -31 -88 -78 -109 -35 -16 -133 -24 -145
-12 -4 4 -8 215 -5 265 1 18 102 15 151 -4z"/>
<path d="M1878 723 c-3 -5 -4 -98 -4 -208 l1 -200 152 -2 151 -2 -1 32 -2 32
-103 1 c-56 1 -106 4 -110 8 -4 4 -7 30 -7 56 l0 49 90 0 c50 -1 97 0 106 0
11 1 18 12 21 31 l5 30 -71 1 c-39 1 -88 0 -108 -1 -21 -1 -38 2 -39 7 -1 4
-2 29 -3 56 l-2 47 111 0 111 0 1 34 1 35 -149 0 c-81 1 -149 -2 -151 -6z"/>
<path d="M2260 521 l0 -211 40 0 40 0 0 175 0 175 64 0 c46 0 69 -5 84 -17 54
-47 23 -108 -57 -111 -25 -1 -45 -3 -46 -4 -2 -2 27 -51 62 -110 l65 -108 44
0 c43 0 44 1 33 22 -6 12 -29 47 -50 77 -43 62 -46 71 -24 71 8 0 29 12 45 28
55 49 46 150 -17 196 -22 16 -48 20 -155 23 l-128 4 0 -210z"/>
<path d="M2734 716 c-45 -20 -74 -62 -74 -106 0 -58 29 -86 113 -111 112 -32
137 -45 137 -73 0 -64 -118 -73 -200 -16 -24 17 -25 17 -43 -7 -25 -32 -18
-46 38 -73 92 -45 229 -26 271 37 18 29 21 92 4 122 -13 26 -71 56 -136 72
-89 22 -117 44 -96 75 25 38 96 39 160 3 34 -19 34 -19 52 3 26 30 25 33 -11
59 -40 28 -166 37 -215 15z"/>
</g>
</svg>
